<svg width="24" height="24" viewBox="0 0 24 24" fill="none" xmlns="http://www.w3.org/2000/svg">
<path d="M11.6504 12.642L6.85512 17.4373C6.72913 17.5633 6.56787 17.6301 6.37134 17.6376C6.17417 17.6458 6.00472 17.579 5.86299 17.4373C5.72126 17.2956 5.65039 17.1302 5.65039 16.9412C5.65039 16.7523 5.72126 16.5869 5.86299 16.4452L10.6583 11.6499L5.86299 6.85463C5.737 6.72864 5.67023 6.56707 5.66267 6.3699C5.65449 6.17337 5.72126 6.00423 5.86299 5.8625C6.00472 5.72077 6.17008 5.6499 6.35905 5.6499C6.54803 5.6499 6.71338 5.72077 6.85512 5.8625L11.6504 10.6578L16.4457 5.8625C16.5717 5.73652 16.7332 5.66943 16.9304 5.66124C17.1269 5.65368 17.2961 5.72077 17.4378 5.8625C17.5795 6.00423 17.6504 6.16959 17.6504 6.35856C17.6504 6.54754 17.5795 6.71289 17.4378 6.85463L12.6425 11.6499L17.4378 16.4452C17.5638 16.5712 17.6305 16.7324 17.6381 16.929C17.6463 17.1261 17.5795 17.2956 17.4378 17.4373C17.2961 17.579 17.1307 17.6499 16.9417 17.6499C16.7528 17.6499 16.5874 17.579 16.4457 17.4373L11.6504 12.642Z" fill="#575B75"/>
</svg>
