<svg width="13" height="13" viewBox="0 0 13 13" fill="none" xmlns="http://www.w3.org/2000/svg">
<path d="M6.65039 7.64252L1.85512 12.4378C1.72913 12.5638 1.56787 12.6305 1.37134 12.6381C1.17417 12.6463 1.00472 12.5795 0.862989 12.4378C0.721257 12.2961 0.650391 12.1307 0.650391 11.9417C0.650391 11.7528 0.721257 11.5874 0.862989 11.4457L5.65826 6.65039L0.862989 1.85512C0.737005 1.72913 0.670233 1.56756 0.662674 1.37039C0.654485 1.17386 0.721257 1.00472 0.862989 0.862989C1.00472 0.721257 1.17008 0.650391 1.35905 0.650391C1.54803 0.650391 1.71338 0.721257 1.85512 0.862989L6.65039 5.65826L11.4457 0.862989C11.5717 0.737005 11.7332 0.669918 11.9304 0.661729C12.1269 0.65417 12.2961 0.721257 12.4378 0.862989C12.5795 1.00472 12.6504 1.17008 12.6504 1.35905C12.6504 1.54803 12.5795 1.71338 12.4378 1.85512L7.64252 6.65039L12.4378 11.4457C12.5638 11.5717 12.6305 11.7329 12.6381 11.9294C12.6463 12.1266 12.5795 12.2961 12.4378 12.4378C12.2961 12.5795 12.1307 12.6504 11.9417 12.6504C11.7528 12.6504 11.5874 12.5795 11.4457 12.4378L6.65039 7.64252Z" fill="#CCCCCC"/>
</svg>
