<svg width="24" height="24" viewBox="0 0 24 24" fill="none" xmlns="http://www.w3.org/2000/svg">
<circle cx="12" cy="12" r="8" fill="#007AFF"/>
<path d="M12.3524 16.1819C12.0071 16.1819 11.7551 16.0792 11.5964 15.8739C11.4471 15.6592 11.3724 15.3139 11.3724 14.8379V10.9179C11.3724 10.8059 11.3538 10.7266 11.3164 10.6799C11.2791 10.6332 11.2138 10.6099 11.1204 10.6099H10.1465L10.4484 10.3019C10.6911 10.0779 10.9664 9.8959 11.2744 9.7559C11.5918 9.6159 11.8671 9.5459 12.1004 9.5459C12.2218 9.5459 12.3198 9.58323 12.3944 9.6579C12.4784 9.72323 12.5204 9.8119 12.5204 9.9239V14.8799C12.5204 15.1692 12.6464 15.3139 12.8984 15.3139C13.0944 15.3139 13.7804 15 14 14.8799L13.741 15.3139C13.5077 15.5566 13.2998 15.8086 13.0384 15.9579C12.7864 16.1072 12.5578 16.1819 12.3524 16.1819Z" fill="white"/>
<circle cx="11.75" cy="7.75" r="0.75" fill="white"/>
</svg>
